# xmcd
#
# Track frame offsets: 
#        150
#        17970
#        33134
#        50642
#        67850
#        84400
#        99790
#        115005
#        134782
#        150464
#        168996
#
# Disc length: 2473 seconds
#
# Revision: 0
# Processed by: cddbd v1.5.2PL0 Copyright (c) Steve Scherf et al.
# Submitted via: ExactAudioCopy v0.95b3
#
DISCID=8009a70b
DTITLE=Casey Donahew Band - Casey Donahew Band
DYEAR=2006
DGENRE=Country
TTITLE0=Let You Down
TTITLE1=No Doubt
TTITLE2=Fallen
TTITLE3=Run Away Train
TTITLE4=Better Off Alone
TTITLE5=Love Me Right
TTITLE6=Where The Rain Can´t Find Me
TTITLE7=Shine On Me
TTITLE8=Crash
TTITLE9=Hangovers And Memories
TTITLE10=White Trash Story
EXTD=
EXTT0=
EXTT1=
EXTT2=
EXTT3=
EXTT4=
EXTT5=
EXTT6=
EXTT7=
EXTT8=
EXTT9=
EXTT10=
PLAYORDER=
